<?xml version="1.0" encoding="utf-8"?>
<svg width="64px" height="64px" viewBox="0 0 64 64" version="1.1" xmlns:xlink="http://www.w3.org/1999/xlink" xmlns="http://www.w3.org/2000/svg">
  <defs>
    <linearGradient x1="0.5" y1="0" x2="0.5" y2="1" id="gradient_1">
      <stop offset="0" stop-color="#6DC7FF" />
      <stop offset="1" stop-color="#E6ABFF" />
    </linearGradient>
    <linearGradient x1="0.5" y1="0" x2="0.5" y2="1.0000001" id="gradient_2">
      <stop offset="0" stop-color="#1A6DFF" />
      <stop offset="1" stop-color="#C822FF" />
    </linearGradient>
    <path d="M0 0L64 0L64 64L0 64L0 0Z" id="path_1" />
    <clipPath id="mask_1">
      <use xlink:href="#path_1" />
    </clipPath>
  </defs>
  <g id="icons8_skype">
    <path d="M0 0L64 0L64 64L0 64L0 0Z" id="Background" fill="none" fill-rule="evenodd" stroke="none" />
    <g clip-path="url(#mask_1)">
      <path d="M26.328 28.889C25.222 30.491 23.591 31.759 21.475 32.657C19.382 33.547 16.869 34 14.014 34C10.583 34 7.705 33.384 5.463 32.163C3.858 31.276 2.532 30.072 1.532 28.589C0.514 27.094 0 25.607 0 24.172C0 23.277 0.336 22.499 0.995001 21.863C1.651 21.235 2.49 20.917 3.488 20.917C4.308 20.917 5.016 21.167 5.592 21.664C6.145 22.141 6.613 22.849 6.991 23.759C7.415 24.753 7.876 25.587 8.367 26.251C8.832 26.882 9.507 27.42 10.369 27.833C11.235 28.254 12.401 28.466 13.839 28.466C15.814 28.466 17.431 28.036 18.647 27.186C19.836 26.355 20.416 25.353 20.416 24.133C20.416 23.167 20.115 22.408 19.497 21.815C18.845 21.191 17.983 20.706 16.946 20.376C15.859 20.03 14.384 19.657 12.562 19.263C10.083 18.718 7.979 18.075 6.306 17.347C4.59 16.6 3.211 15.566 2.2 14.274C1.175 12.958 0.656004 11.313 0.656004 9.373C0.656004 7.52401 1.202 5.85801 2.28 4.42401C3.344 3.00101 4.90701 1.887 6.916 1.12801C8.895 0.377 11.255 0 13.92 0C16.054 0 17.931 0.25 19.498 0.752C21.069 1.252 22.399 1.928 23.44 2.763C24.493 3.606 25.27 4.504 25.762 5.438C26.258 6.38 26.509 7.318 26.509 8.225C26.509 9.099 26.181 9.894 25.529 10.586C24.877 11.281 24.05 11.631 23.078 11.631C22.193 11.631 21.5 11.412 21.019 10.979C20.573 10.574 20.108 9.941 19.593 9.035C18.998 7.874 18.278 6.96 17.45 6.32C16.649 5.696 15.303 5.378 13.462 5.378C11.75 5.378 10.359 5.728 9.32601 6.423C8.32801 7.091 7.84301 7.858 7.84301 8.768C7.84301 9.325 7.99901 9.789 8.32001 10.191C8.66301 10.612 9.14001 10.986 9.74601 11.296C10.375 11.618 11.02 11.877 11.668 12.06C12.331 12.247 13.445 12.529 14.974 12.891C16.907 13.317 18.684 13.789 20.255 14.302C21.845 14.826 23.221 15.466 24.342 16.214C25.482 16.978 26.389 17.956 27.033 19.124C27.677 20.296 28 21.746 28 23.432C27.998 25.447 27.438 27.283 26.328 28.889L26.328 28.889Z" transform="translate(18 15)" id="Shape" fill="url(#gradient_1)" fill-rule="evenodd" stroke="none" />
      <path d="M37.5 52C35.269 52 33.047 51.477 31.051 50.483C29.382 50.826 27.685 51 26 51C12.215 51 1 39.785 1 26C1 24.314 1.174 22.617 1.517 20.949C0.523 18.953 0 16.731 0 14.5C0 6.505 6.505 0 14.5 0C16.731 0 18.953 0.523 20.949 1.517C22.618 1.174 24.315 1 26 1C39.785 1 51 12.215 51 26C51 27.685 50.826 29.382 50.483 31.051C51.477 33.047 52 35.269 52 37.5C52 45.495 45.495 52 37.5 52L37.5 52ZM31.334 48.375L31.659 48.547C33.477 49.511 35.442 50 37.5 50C44.393 50 50 44.393 50 37.5C50 35.442 49.511 33.477 48.547 31.659L48.375 31.334L48.454 30.975C48.816 29.334 49 27.66 49 26C49 13.317 38.683 3 26 3C24.34 3 22.666 3.184 21.025 3.546L20.666 3.625L20.341 3.453C18.523 2.489 16.558 2 14.5 2C7.607 2 2 7.607 2 14.5C2 16.558 2.489 18.523 3.453 20.341L3.625 20.666L3.546 21.025C3.184 22.665 3 24.339 3 26C3 38.683 13.317 49 26 49C27.66 49 29.334 48.816 30.975 48.454L31.334 48.375L31.334 48.375Z" transform="translate(6 6)" id="Shape" fill="url(#gradient_2)" fill-rule="evenodd" stroke="none" />
    </g>
  </g>
</svg>