<?xml version="1.0" encoding="utf-8"?>
<svg width="64px" height="64px" viewBox="0 0 64 64" version="1.1" xmlns:xlink="http://www.w3.org/1999/xlink" xmlns="http://www.w3.org/2000/svg">
  <defs>
    <linearGradient x1="0.50000095" y1="0" x2="0.50000095" y2="1.0000002" id="gradient_1">
      <stop offset="0" stop-color="#6DC7FF" />
      <stop offset="1" stop-color="#E6ABFF" />
    </linearGradient>
    <linearGradient x1="0.50000006" y1="-1.3947487E-05" x2="0.50000006" y2="0.99999994" id="gradient_2">
      <stop offset="0" stop-color="#1A6DFF" />
      <stop offset="1" stop-color="#C822FF" />
    </linearGradient>
    <linearGradient x1="0.5000007" y1="0" x2="0.5000007" y2="1.0000002" id="gradient_3">
      <stop offset="0" stop-color="#6DC7FF" />
      <stop offset="1" stop-color="#E6ABFF" />
    </linearGradient>
    <path d="M0 0L64 0L64 64L0 64L0 0Z" id="path_1" />
    <clipPath id="mask_1">
      <use xlink:href="#path_1" />
    </clipPath>
  </defs>
  <g id="icons8_discord">
    <path d="M0 0L64 0L64 64L0 64L0 0Z" id="Background" fill="none" fill-rule="evenodd" stroke="none" />
    <g clip-path="url(#mask_1)">
      <path d="M3.938 0C1.76311 0 3.8147e-06 2.01471 0 4.49999C-7.62939e-06 6.98526 1.76308 8.99999 3.93798 9C6.11287 9.00001 7.87598 6.9853 7.87599 4.50002C7.876 2.01475 6.11291 1.90735e-05 3.93802 0L3.938 0Z" transform="translate(36 30)" id="Shape" fill="url(#gradient_1)" fill-rule="evenodd" stroke="none" />
      <path d="M48.263 4.97641C43.447 1.10541 35.239 0.0514126 34.891 0.00841236C34.454 -0.0485878 34.036 0.190413 33.856 0.591413C33.831 0.646413 33.313 1.82141 33.078 3.37341C31.086 3.11141 29.313 3.03841 27.983 3.03841C26.61 3.03841 24.767 3.11441 22.694 3.39841C22.461 1.83441 21.937 0.645412 21.912 0.590413C21.732 0.189413 21.314 -0.0455866 20.873 0.00741291C20.536 0.0504131 12.551 1.10641 7.685 5.02041C5.122 7.38841 0 21.1634 0 33.0384C0 33.2114 0.0450001 33.3824 0.131 33.5334C3.558 39.5534 13.689 41.9654 15.968 42.0384C15.979 42.0384 15.989 42.0384 16 42.0384C16.303 42.0384 16.591 41.9004 16.781 41.6634L20.276 37.2954C22.519 37.7414 25.098 38.0384 28.024 38.0384C30.935 38.0384 33.498 37.7444 35.73 37.3014L39.22 41.6634C39.409 41.9004 39.697 42.0384 40 42.0384C40.011 42.0384 40.021 42.0384 40.032 42.0384C42.306 41.9654 52.422 39.5434 55.867 33.4914C55.953 33.3414 55.998 33.1704 55.998 32.9964C55.999 21.1434 50.877 7.38741 48.263 4.97641L48.263 4.97641ZM40.451 40.0014L37.891 36.8014C43.526 35.3024 46.459 32.9554 46.635 32.8114C47.061 32.4614 47.122 31.8334 46.774 31.4064C46.425 30.9804 45.796 30.9164 45.368 31.2634C45.309 31.3114 39.365 36.0384 28.024 36.0384C16.693 36.0384 10.702 31.3194 10.63 31.2624C10.203 30.9144 9.573 30.9784 9.225 31.4074C8.876 31.8354 8.94 32.4654 9.369 32.8144C9.546 32.9584 12.49 35.2944 18.117 36.7934L15.55 40.0024C12.644 39.6794 4.814 37.3444 2.003 32.7664C2.081 21.4584 7.018 8.36141 8.992 6.53441C12.539 3.68341 18.273 2.47441 20.348 2.11441C20.481 2.52741 20.629 3.09441 20.721 3.72541C17.73 4.30441 14.447 5.34441 11.475 7.18841C11.005 7.47941 10.861 8.09541 11.152 8.56441C11.444 9.03541 12.059 9.18041 12.528 8.88741C17.928 5.53841 24.529 5.03841 27.983 5.03841C31.45 5.03841 38.072 5.53841 43.473 8.88841C43.637 8.99041 43.819 9.03841 43.999 9.03841C44.333 9.03841 44.661 8.87041 44.85 8.56541C45.142 8.09641 44.997 7.48041 44.527 7.18941C41.484 5.30141 38.11 4.25841 35.054 3.68741C35.147 3.06941 35.293 2.51641 35.423 2.11141C37.532 2.46341 43.433 3.66041 46.957 6.49041C48.983 8.36141 53.918 21.4404 53.997 32.7254C51.172 37.3304 43.352 39.6784 40.451 40.0014L40.451 40.0014Z" transform="translate(4 10.961587)" id="Shape" fill="url(#gradient_2)" fill-rule="evenodd" stroke="none" />
      <path d="M4 0C1.79086 0 5.72205e-06 2.01471 0 4.49999C-5.72205e-06 6.98526 1.79084 8.99999 3.99998 9C6.20911 9.00001 7.99998 6.9853 7.99999 4.50002C8 2.01475 6.20915 1.90735e-05 4.00002 0L4 0Z" transform="translate(20 30)" id="Shape" fill="url(#gradient_3)" fill-rule="evenodd" stroke="none" />
    </g>
  </g>
</svg>